<svg width="593" height="461" viewBox="0 0 593 461" fill="none" xmlns="http://www.w3.org/2000/svg">
<path d="M479.5 12.5L516.5 9.5H529L542.5 10.5L559.5 15.5L571 22L580.5 30L586.5 38.5L589.5 44.5L590.5 47L591.5 50.5L592 53.5L592.5 58V63L592 70L590.5 77.5L588 86.5L584.5 97L577.5 112.5L563 137.5L545 163L521 189.5L500 210L494 215.5L421.5 274.5V277.5L423 280.5L425 283.5L528.5 460.5H431.5L355.5 325.5L354 323L353 322H351.5L350.5 322.5L349 323.5L345.5 326L334.5 333L313.5 346L285 362L269 370.5L249.5 381L213 399.5L187 411.5L164.5 420.5L151 426L135 431.5L107.5 440.5L67.5 452.5L54 455.5L41.5 457.5L30.5 460H15H2.5L1 459V456.5L3.5 452.5L263 1.5L374 194L308.5 236.5L265.5 172L264 170L262 169.5L260.828 170L259.5 172.5L255.5 179L164.5 331.5L163.5 334L162.5 336.5V338L163.5 340L164.5 341L166 342.5L168 343.5L171 344L175.5 343.5L180.5 342L184.5 341L189.5 339L195 336.5L224.5 325.5L262 306.5L301 286.5L327 269L364.5 243L394 222L423 200L467 161L490 137.5L512 112.5L525.5 91L531 81L533.5 74L534.5 68.5L535.5 65L536 60V53.5L535.5 50.5L534.5 47L533 45L530 40.5L526 36.5L521.5 32L517.5 29L514.5 27.5L508 25L479.5 12.5Z" fill="#0080FF" stroke="white"/>
</svg>
